<svg version="1.1" id="Layer_1" xmlns="http://www.w3.org/2000/svg" xmlns:xlink="http://www.w3.org/1999/xlink" x="0px" y="0px" viewBox="0 0 512 512" style="enable-background:new 0 0 512 512;" xml:space="preserve">
<style type="text/css">
	.st0{fill:#86A8B5;}
	.st1{fill:#607D8B;}
</style>
<path class="st0" d="M197.3,0h-160C16.7,0,0,16.7,0,37.3v96c0,20.6,16.7,37.3,37.3,37.3h160c20.6,0,37.3-16.7,37.3-37.3v-96
	C234.7,16.7,217.9,0,197.3,0z" id="id_101" style="fill: rgb(6, 66, 34);"></path>
<path class="st1" d="M197.3,213.3h-160C16.7,213.3,0,230.1,0,250.7v224C0,495.3,16.7,512,37.3,512h160c20.6,0,37.3-16.7,37.3-37.3
	v-224C234.7,230.1,217.9,213.3,197.3,213.3z" id="id_102" style="fill: rgb(10, 77, 41);"></path>
<path class="st0" d="M474.7,341.3h-160c-20.6,0-37.3,16.7-37.3,37.3v96c0,20.6,16.7,37.3,37.3,37.3h160c20.6,0,37.3-16.7,37.3-37.3
	v-96C512,358.1,495.3,341.3,474.7,341.3z" id="id_103" style="fill: rgb(6, 46, 25);"></path>
<path class="st1" d="M474.7,0h-160c-20.6,0-37.3,16.7-37.3,37.3v224c0,20.6,16.7,37.3,37.3,37.3h160c20.6,0,37.3-16.7,37.3-37.3
	v-224C512,16.7,495.3,0,474.7,0z" id="id_104" style="fill: rgb(14, 92, 50);"></path>
</svg>