<svg width="64" height="64" viewBox="0 0 64 64" fill="none" xmlns="http://www.w3.org/2000/svg">
<path d="M57.51 41.5798C53.7339 42.1562 49.8778 41.9097 46.2059 40.8573C42.5339 39.8048 39.1327 37.9712 36.2353 35.4821C33.3378 32.993 31.0124 29.9071 29.4184 26.4358C27.8245 22.9645 26.9995 19.1896 27 15.3698C27.0031 11.7664 27.7486 8.20234 29.19 4.89982C29.2938 4.65364 29.3309 4.38443 29.2976 4.11933C29.2642 3.85423 29.1616 3.60261 29 3.38982C28.8381 3.17709 28.6213 3.01254 28.3728 2.91387C28.1244 2.81519 27.8537 2.78613 27.59 2.82982C22.5107 3.59938 17.7204 5.68201 13.6932 8.87161C9.6661 12.0612 6.5417 16.2472 4.62929 21.0152C2.71687 25.7832 2.08275 30.968 2.78969 36.0564C3.49662 41.1448 5.5201 45.9604 8.65985 50.0265C11.7996 54.0927 15.9468 57.2684 20.6909 59.2394C25.435 61.2104 30.6116 61.9083 35.7083 61.2641C40.805 60.6199 45.6451 58.6559 49.7496 55.5665C53.8541 52.477 57.0807 48.3693 59.11 43.6498C59.2141 43.4046 59.251 43.136 59.2169 42.8718C59.1828 42.6076 59.079 42.3572 58.916 42.1464C58.7531 41.9356 58.537 41.772 58.2898 41.6724C58.0427 41.5728 57.7735 41.5409 57.51 41.5798Z" fill="#f2f094" id="id_101"></path>
<path d="M61.3299 11.9999C61.124 11.368 60.7222 10.8181 60.1829 10.4297C59.6435 10.0414 58.9945 9.83482 58.3299 9.83993H53.2099C53.1837 9.8464 53.1562 9.8465 53.1299 9.84024C53.1036 9.83398 53.0792 9.82154 53.0586 9.80393C53.0381 9.78633 53.0221 9.76408 53.0119 9.73904C53.0016 9.71399 52.9976 9.68687 52.9999 9.65993L51.5099 4.71993C51.3023 4.0784 50.8967 3.51917 50.3514 3.12252C49.8062 2.72587 49.1492 2.51221 48.4749 2.51221C47.8006 2.51221 47.1437 2.72587 46.5984 3.12252C46.0531 3.51917 45.6476 4.0784 45.4399 4.71993L43.9099 9.71993C43.8989 9.75593 43.8762 9.78726 43.8454 9.80898C43.8147 9.83069 43.7776 9.84158 43.7399 9.83993H38.6299C37.9637 9.8357 37.3132 10.0415 36.7706 10.428C36.228 10.8145 35.8209 11.3622 35.6073 11.9932C35.3936 12.6242 35.3842 13.3065 35.5803 13.9432C35.7765 14.5799 36.1682 15.1385 36.6999 15.5399L40.9999 18.7599C41.0259 18.7945 41.0399 18.8367 41.0399 18.8799C41.0399 18.9232 41.0259 18.9653 40.9999 18.9999L39.3999 24.1699C39.1904 24.8192 39.1952 25.5186 39.4137 26.1649C39.6322 26.8112 40.0527 27.3701 40.6132 27.759C41.1736 28.148 41.8443 28.3464 42.5262 28.325C43.2081 28.3035 43.865 28.0633 44.3999 27.6399L48.3999 24.6399C48.4299 24.6164 48.4669 24.6036 48.5049 24.6036C48.543 24.6036 48.58 24.6164 48.6099 24.6399L52.6099 27.6399C53.1464 28.0558 53.8016 28.2897 54.4802 28.3076C55.1588 28.3255 55.8254 28.1264 56.3831 27.7394C56.9407 27.3524 57.3604 26.7976 57.5811 26.1556C57.8017 25.5136 57.8118 24.818 57.6099 24.1699L55.9099 18.9999C55.9016 18.9643 55.9028 18.927 55.9133 18.8919C55.9238 18.8569 55.9434 18.8251 55.9699 18.7999L60.2499 15.5299C60.7821 15.133 61.1738 14.5766 61.368 13.9418C61.5622 13.3069 61.5489 12.6267 61.3299 11.9999V11.9999Z" fill="#fcf800" id="id_102"></path>
</svg>