<svg width="64" height="64" viewBox="0 0 64 64" fill="none" xmlns="http://www.w3.org/2000/svg">
<path d="M34.6299 4.72021L27.2799 21.1102L31.4199 38.0102L43.5899 48.7502L54.4099 51.4502L51.6999 55.3402L38.6099 59.8202L25.7599 58.5002L14.0099 50.2902L7.41992 35.6002L9.31992 21.7002L18.9999 8.78021L27.9599 4.72021H34.6299Z" fill="#021f03" id="id_103"></path>
<path d="M57.57 51.77C57.6613 51.5332 57.6915 51.2773 57.6578 51.0258C57.624 50.7743 57.5274 50.5354 57.3769 50.3311C57.2265 50.1268 57.0269 49.9637 56.7967 49.8569C56.5666 49.7501 56.3132 49.703 56.06 49.72C32.87 50 20.58 21.81 36.55 4.99999C36.7552 4.78584 36.8919 4.51531 36.9425 4.22302C36.993 3.93074 36.9552 3.63002 36.8339 3.35936C36.7125 3.0887 36.5131 2.86042 36.2612 2.70376C36.0093 2.5471 35.7164 2.46919 35.42 2.47999C27.6696 2.60834 20.279 5.77283 14.8373 11.2931C9.39555 16.8133 6.33728 24.2485 6.32 32C6.23 58.7 39.91 71.85 57.57 51.77ZM9.32 32C9.34348 25.6405 11.6438 19.4996 15.8042 14.6898C19.9647 9.87996 25.7102 6.71919 32 5.77999C18.5 23.84 30.32 50.27 52.51 52.54C35.52 66.63 9.22 54.14 9.32 32Z" fill="#033b05" id="id_104"></path>
</svg>