<svg version="1.1" id="Layer_1" xmlns="http://www.w3.org/2000/svg" xmlns:xlink="http://www.w3.org/1999/xlink" x="0px" y="0px" viewBox="0 0 100.752 100.749" style="enable-background:new 0 0 100.752 100.749;" xml:space="preserve">
<path d="M36.288,65.392H55.7c0.828,0,1.5-0.671,1.5-1.5s-0.672-1.5-1.5-1.5H36.288c-0.828,0-1.5,0.671-1.5,1.5
	S35.46,65.392,36.288,65.392z" id="id_101" style="fill: rgb(27, 69, 143);"></path>
<path d="M62.566,69.697H28.984c-0.828,0-1.5,0.671-1.5,1.5s0.672,1.5,1.5,1.5h33.582c0.828,0,1.5-0.671,1.5-1.5
	S63.394,69.697,62.566,69.697z" id="id_102" style="fill: rgb(24, 75, 163);"></path>
<path d="M55.7,76.998H36.288c-0.828,0-1.5,0.671-1.5,1.5s0.672,1.5,1.5,1.5H55.7c0.828,0,1.5-0.671,1.5-1.5
	S56.528,76.998,55.7,76.998z" id="id_103" style="fill: rgb(24, 43, 168);"></path>
<path d="M36.45,42.441h7.25v7.254c0,0.829,0.672,1.5,1.5,1.5s1.5-0.671,1.5-1.5v-7.254h7.24c0.828,0,1.5-0.671,1.5-1.5
	s-0.672-1.5-1.5-1.5H46.7v-7.25c0-0.829-0.672-1.5-1.5-1.5s-1.5,0.671-1.5,1.5v7.25h-7.25c-0.828,0-1.5,0.671-1.5,1.5
	S35.622,42.441,36.45,42.441z" id="id_104" style="fill: rgb(0, 99, 15);"></path>
<path d="M79.95,12.215H27.939c-0.828,0-1.5,0.671-1.5,1.5v7.186h-7.251c-0.828,0-1.5,0.671-1.5,1.5v65.883
	c0,0.829,0.672,1.5,1.5,1.5h52.019c0.828,0,1.5-0.671,1.5-1.5v-7.186h7.243c0.828,0,1.5-0.671,1.5-1.5V13.714
	C81.45,12.887,80.778,12.215,79.95,12.215z M20.688,86.785V23.902h49.019v55.63C69.706,79.555,69.7,79.577,69.7,79.6
	s0.006,0.045,0.007,0.068v7.118H20.688V86.785z M78.45,78.099h-5.743V22.401c0-0.829-0.672-1.5-1.5-1.5H29.439v-5.686H78.45V78.099z
	" id="id_105" style="fill: rgb(22, 43, 179);"></path>
</svg>