<svg version="1.1" id="Layer_1" xmlns="http://www.w3.org/2000/svg" xmlns:xlink="http://www.w3.org/1999/xlink" x="0px" y="0px" viewBox="0 0 45.3 45.6" enable-background="new 0 0 45.3 45.6" xml:space="preserve">
<g>
<circle fill="#000000" cx="22.8" cy="22.8" r="21.6" id="id_101"></circle>
<path fill="#156373" d="M36.9,22.6L23.2,8.7c-0.3-0.3-0.7-0.3-1,0L17.1,14v-2.8c0-0.4-0.3-0.7-0.7-0.7h-2.7c-0.4,0-0.7,0.3-0.7,0.7
		v6.9l-4.4,4.5c-0.2,0.2-0.2,0.5-0.1,0.7c0.1,0.2,0.3,0.4,0.6,0.4h3.6v12.6c0,0.4,0.3,0.7,0.7,0.7h6.3c0.4,0,0.7-0.3,0.7-0.7V32
		c0-1.3,1.1-2.4,2.4-2.4s2.4,1.1,2.4,2.4v4.5c0,0.4,0.3,0.7,0.7,0.7h6.3c0.4,0,0.7-0.3,0.7-0.7V23.8h3.6c0.3,0,0.5-0.2,0.6-0.4
		C37.1,23.1,37.1,22.8,36.9,22.6z" id="id_102"></path>
</g>
</svg>