<svg version="1.1" id="Layer_1" xmlns="http://www.w3.org/2000/svg" xmlns:xlink="http://www.w3.org/1999/xlink" x="0px" y="0px" viewBox="0 0 50 50" style="enable-background:new 0 0 50 50;" xml:space="preserve">
<style type="text/css">
	.st0{fill:#FDC324;}
	.st1{fill:#F90B22;}
	.st2{fill:#00BD49;}
	.st3{fill:#0390BE;}
	.st4{fill:#FF0425;}
	.st5{fill:#682CC6;}
	.st6{fill:#CC33AF;}
	.st7{fill:url(#SVGID_1_);}
	.st8{fill:url(#SVGID_2_);}
	.st9{fill:url(#SVGID_3_);}
	.st10{fill:url(#SVGID_4_);}
	.st11{fill:url(#SVGID_5_);}
	.st12{fill:url(#SVGID_6_);}
	.st13{fill:url(#SVGID_7_);}
	.st14{fill:url(#SVGID_8_);}
	.st15{fill:url(#SVGID_9_);}
	.st16{fill:url(#SVGID_10_);}
	.st17{fill:url(#SVGID_11_);}
	.st18{fill:url(#SVGID_12_);}
	.st19{fill:url(#SVGID_13_);}
	.st20{fill:url(#SVGID_14_);}
	.st21{fill:#009A34;}
	.st22{fill:url(#SVGID_15_);}
	.st23{fill:url(#SVGID_16_);}
</style>
<path d="M43.2,22.8c0-1.5-0.4-1.7-1.8-1.7c-7.3,0.1-14.7,0-22,0.1c-1.2,0-1.7-0.2-1.6-1.5c0.1-2.2,0-4.4,0.1-6.6
	c0.1-3.6,2.9-6.6,6.4-7c3.8-0.5,7.2,1.6,8.4,5.2C33,12.5,33,13.7,33,15c0,0.6,0,1,0.9,1.1c4.2,0.6,4.6,0.2,4.1-3.9
	c0-0.1,0-0.1,0-0.2c-0.6-5.4-4.6-9.8-10-10.8c-5.5-1.1-10.8,1.4-13.5,6.2c-1.8,3.2-1.7,6.6-1.7,10c0,3.6,0,3.7-3.6,3.7
	c-1.3,0-1.4,0.4-1.4,1.5c0,8.3,0.1,16.7,0,25c0,1.2,0.4,1.4,1.5,1.4c5.4-0.1,10.8,0,16.2,0s10.8,0,16.2,0c1.3,0,1.7-0.2,1.7-1.6
	C43.1,39.3,43.1,31.1,43.2,22.8z M25.6,40.1c-2.9,0.1-5.2-2.1-5.2-5c0-2.8,2.2-5,4.9-5.1c2.8,0,5,2.1,5.1,4.9
	C30.5,37.8,28.4,40,25.6,40.1z" id="id_101" style="fill: rgb(10, 61, 34);"></path>
</svg>